# Blender v2.82 (sub 7) OBJ File: 'temporary_objects.blend'
# www.blender.org
mtllib hoe.mtl
o Cylinder.001_Cylinder.002
v -0.013327 -0.008346 -3.612587
v -0.010304 1.272573 -3.617823
v -0.013327 -0.008346 -3.660264
v -0.010304 1.272573 -3.655028
v 0.027962 -0.008346 -3.636425
v 0.021916 1.272573 -3.636425
v -0.010341 1.257144 -3.617760
v -0.010341 1.257144 -3.655091
v 0.021989 1.257144 -3.636425
v -0.010326 1.263147 -3.617785
v -0.010326 1.263147 -3.655066
v 0.021960 1.263147 -3.636425
v -0.010326 1.263147 -3.655066
v -0.010341 1.257144 -3.655091
v 0.021960 1.263147 -3.636425
v 0.021989 1.257144 -3.636425
v -0.010341 1.257144 -3.617760
v -0.010326 1.263147 -3.617785
v -0.010326 1.263147 -3.655066
v -0.010341 1.257144 -3.655091
v 0.021960 1.263147 -3.636425
v 0.021989 1.257144 -3.636425
v -0.010341 1.257144 -3.617760
v -0.010326 1.263147 -3.617785
v -0.013496 1.263149 -3.655066
v -0.013510 1.257146 -3.655091
v -0.013510 1.257146 -3.617760
v -0.013496 1.263149 -3.617785
v 0.023516 1.263149 -3.633731
v 0.023544 1.257146 -3.633731
v -0.008785 1.257146 -3.615066
v -0.008771 1.263149 -3.615090
v -0.009127 1.263149 -3.657144
v -0.009141 1.257145 -3.657169
v 0.023160 1.263149 -3.638504
v 0.023188 1.257145 -3.638504
v 0.037303 1.261359 -3.633731
v 0.037331 1.258936 -3.633731
v 0.036947 1.261359 -3.638504
v 0.036975 1.258936 -3.638504
v 0.217017 1.202422 -3.731915
v 0.032535 1.245262 -3.694450
v 0.217017 1.202422 -3.541066
v 0.032535 1.245262 -3.578532
v 0.218165 1.206218 -3.541066
v 0.218165 1.206218 -3.731915
v 0.033683 1.249058 -3.694449
v 0.033683 1.249058 -3.578532
v 0.128567 1.236379 -3.713182
v 0.128567 1.236379 -3.559799
v 0.129715 1.240175 -3.713182
v 0.129715 1.240175 -3.559799
v 0.221215 1.216305 -3.636491
v 0.036734 1.259145 -3.636491
v 0.222363 1.220101 -3.636491
v 0.037882 1.262941 -3.636491
v 0.133914 1.254059 -3.636491
v 0.132766 1.250263 -3.636491
vt 0.333333 0.996321
vt -0.000000 0.996321
vt -0.000000 0.996321
vt 0.333333 0.996321
vt 1.000000 0.996321
vt 0.666667 0.996321
vt 0.666667 0.996321
vt 1.000000 0.996321
vt -0.000000 0.996321
vt 0.333333 0.996321
vt 0.666667 0.996321
vt 1.000000 0.996321
vt 0.333333 0.993977
vt 0.666667 0.993977
vt 0.666667 0.993977
vt 0.333333 0.993977
vt 0.666667 0.993977
vt 1.000000 0.993977
vt 1.000000 0.993977
vt -0.000000 0.993977
vt 0.333333 0.993977
vt -0.000000 0.993977
vt -0.000000 0.993977
vt 0.333333 0.993977
vt -0.000000 0.993977
vt 1.000000 0.993977
vt 1.000000 0.993977
vt 0.666667 0.993977
vt 1.000000 0.996321
vt 0.666667 0.996321
vt 0.666667 0.996321
vt 0.666667 0.993977
vt 0.333333 0.996321
vt -0.000000 0.996321
vt 0.333333 0.996321
vt 0.333333 0.993977
vt 0.333333 0.996321
vt 0.333333 0.993977
vt 0.333333 0.993977
vt 0.333333 0.996321
vt 0.000000 0.000000
vt 0.000000 0.000000
vt 0.000000 0.000000
vt 0.000000 0.000000
vt 0.500000 0.500000
vt 0.500000 1.000000
vt 1.000000 1.000000
vt 1.000000 0.500000
vt 0.500000 0.500000
vt 1.000000 0.500000
vt 1.000000 1.000000
vt 0.500000 1.000000
vt 0.000000 0.500000
vt 0.000000 0.000000
vt 0.000000 0.000000
vt 0.000000 0.500000
vt 0.000000 1.000000
vt 0.000000 1.000000
vt 0.500000 0.000000
vt 1.000000 0.000000
vt 1.000000 0.000000
vt 0.500000 0.000000
vt 1.000000 1.000000
vt 0.666667 1.000000
vt 0.333333 1.000000
vt -0.000000 1.000000
vt 0.333333 0.500000
vt -0.000000 0.500000
vt 0.666667 0.500000
vt 1.000000 0.500000
vn 0.0000 0.0000 1.0000
vn 0.0003 -1.0000 0.0005
vn -0.0006 -1.0000 -0.0000
vn -1.0000 0.0024 0.0000
vn -0.4295 0.0047 -0.9031
vn 0.0006 1.0000 0.0000
vn 0.5000 0.0024 0.8660
vn -0.0003 1.0000 -0.0006
vn 0.5000 0.0024 -0.8660
vn -0.0003 1.0000 0.0005
vn 0.0003 -1.0000 -0.0005
vn 0.0000 0.0000 -1.0000
vn -0.1288 -0.9916 0.0097
vn -0.0702 -0.9761 -0.2057
vn 0.0702 0.9761 0.2057
vn -0.9572 0.2895 0.0000
vn 0.9572 -0.2895 0.0000
vn -0.1861 0.0563 0.9809
vn -0.1861 0.0563 -0.9809
vn 0.3381 0.9264 0.1659
vn -0.3381 -0.9264 -0.1659
vn -0.3381 -0.9264 0.1659
vn 0.3381 0.9264 -0.1659
vn 0.0702 0.9761 -0.2057
vn -0.0702 -0.9761 0.2057
vn -0.4953 0.0047 0.8687
usemtl Metal.001
s off
f 12/1/1 10/2/1 18/3/1 15/4/1
f 10/5/1 11/6/1 13/7/1 18/8/1
f 15/4/1 18/3/1 24/9/1 21/10/1
f 18/8/1 13/7/1 19/11/1 24/12/1
f 16/13/1 14/14/1 20/15/1 22/16/1
f 8/17/1 7/18/1 17/19/1 14/14/1
f 7/20/1 9/21/1 16/13/1 17/22/1
f 11/6/1 12/1/1 15/4/1 13/7/1
f 23/23/2 22/16/2 30/24/2 31/25/2
f 20/15/3 23/26/3 27/27/3 26/28/3
f 14/14/1 17/19/1 23/26/1 20/15/1
f 17/22/1 16/13/1 22/16/1 23/23/1
f 13/7/1 15/4/1 21/10/1 19/11/1
f 27/27/4 28/29/4 25/30/4 26/28/4
f 33/31/5 34/32/5 26/28/5 25/30/5
f 24/12/6 19/11/6 25/30/6 28/29/6
f 30/24/7 29/33/7 32/34/7 31/25/7
f 21/10/8 24/9/8 32/34/8 29/33/8
f 34/32/9 33/31/9 35/35/9 36/36/9
f 19/11/10 21/10/10 35/35/10 33/31/10
f 22/16/11 20/15/11 34/32/11 36/36/11
f 30/24/12 29/33/12 37/37/12 38/38/12
f 35/35/1 36/36/1 40/39/1 39/40/1
f 29/41/13 35/42/13 39/43/13 37/44/13
f 58/45/14 50/46/14 44/47/14 54/48/14
f 57/49/15 56/50/15 48/51/15 52/52/15
f 54/48/16 44/47/16 48/51/16 56/50/16
f 53/53/17 41/54/17 46/55/17 55/56/17
f 50/46/18 43/57/18 45/58/18 52/52/18
f 49/59/19 42/60/19 47/61/19 51/62/19
f 41/54/19 49/59/19 51/62/19 46/55/19
f 44/47/18 50/46/18 52/52/18 48/51/18
f 55/56/20 57/49/20 52/52/20 45/58/20
f 53/53/21 43/57/21 50/46/21 58/45/21
f 41/54/22 53/53/22 58/45/22 49/59/22
f 46/55/23 51/62/23 57/49/23 55/56/23
f 43/57/17 53/53/17 55/56/17 45/58/17
f 42/60/16 54/48/16 56/50/16 47/61/16
f 51/62/24 47/61/24 56/50/24 57/49/24
f 49/59/25 58/45/25 54/48/25 42/60/25
f 28/29/26 27/27/26 31/25/26 32/34/26
usemtl Material.001
f 10/5/4 2/63/4 4/64/4 11/6/4
f 11/6/9 4/64/9 6/65/9 12/1/9
f 12/1/7 6/65/7 2/66/7 10/2/7
f 5/67/7 9/21/7 7/20/7 1/68/7
f 3/69/9 8/17/9 9/21/9 5/67/9
f 1/70/4 7/18/4 8/17/4 3/69/4
