# Blender v2.82 (sub 7) OBJ File: 'villager.blend'
# www.blender.org
mtllib hoe.mtl
o Cylinder.001_Cylinder.002
v 3.329343 0.000000 -0.018923
v 3.326913 1.174685 -0.014715
v 3.329343 0.000000 0.019391
v 3.326913 1.174685 0.015183
v 3.296162 0.000000 0.000234
v 3.301021 1.174685 0.000234
v 3.326942 1.160535 -0.014766
v 3.326942 1.160535 0.015234
v 3.300962 1.160535 0.000234
v 3.326931 1.166041 -0.014746
v 3.326931 1.166041 0.015214
v 3.300985 1.166041 0.000234
v 3.326931 1.166041 0.015214
v 3.326942 1.160535 0.015234
v 3.300985 1.166041 0.000234
v 3.300962 1.160535 0.000234
v 3.326942 1.160535 -0.014766
v 3.326931 1.166041 -0.014746
v 3.326931 1.166041 0.015214
v 3.326942 1.160535 0.015234
v 3.300985 1.166041 0.000234
v 3.300962 1.160535 0.000234
v 3.326942 1.160535 -0.014766
v 3.326931 1.166041 -0.014746
v 3.329479 1.166043 0.015214
v 3.329490 1.160537 0.015234
v 3.329490 1.160537 -0.014766
v 3.329479 1.166043 -0.014746
v 3.299735 1.166043 -0.001931
v 3.299712 1.160537 -0.001931
v 3.325692 1.160537 -0.016931
v 3.325681 1.166043 -0.016911
v 3.325967 1.166042 0.016884
v 3.325978 1.160537 0.016904
v 3.300021 1.166042 0.001904
v 3.299998 1.160537 0.001904
v 3.288655 1.164401 -0.001931
v 3.288632 1.162179 -0.001931
v 3.288941 1.164401 0.001904
v 3.288918 1.162179 0.001904
v 3.144233 1.110352 0.076972
v 3.292487 1.149639 0.046863
v 3.144233 1.110352 -0.076399
v 3.292487 1.149639 -0.046291
v 3.143311 1.113833 -0.076399
v 3.143311 1.113833 0.076972
v 3.291564 1.153120 0.046863
v 3.291564 1.153120 -0.046291
v 3.215313 1.141493 0.061917
v 3.215313 1.141493 -0.061345
v 3.214391 1.144974 0.061917
v 3.214391 1.144974 -0.061345
v 3.140860 1.123084 0.000286
v 3.289113 1.162371 0.000286
v 3.139937 1.126565 0.000286
v 3.288190 1.165852 0.000286
v 3.211017 1.157706 0.000286
v 3.211939 1.154225 0.000286
vt 0.333333 0.996321
vt -0.000000 0.996321
vt -0.000000 0.996321
vt 0.333333 0.996321
vt 1.000000 0.996321
vt 0.666667 0.996321
vt 0.666667 0.996321
vt 1.000000 0.996321
vt -0.000000 0.996321
vt 0.333333 0.996321
vt 0.666667 0.996321
vt 1.000000 0.996321
vt 0.333333 0.993977
vt 0.666667 0.993977
vt 0.666667 0.993977
vt 0.333333 0.993977
vt 0.666667 0.993977
vt 1.000000 0.993977
vt 1.000000 0.993977
vt -0.000000 0.993977
vt 0.333333 0.993977
vt -0.000000 0.993977
vt -0.000000 0.993977
vt 0.333333 0.993977
vt -0.000000 0.993977
vt 1.000000 0.993977
vt 1.000000 0.993977
vt 0.666667 0.993977
vt 1.000000 0.996321
vt 0.666667 0.996321
vt 0.666667 0.996321
vt 0.666667 0.993977
vt 0.333333 0.996321
vt -0.000000 0.996321
vt 0.333333 0.996321
vt 0.333333 0.993977
vt 0.333333 0.996321
vt 0.333333 0.993977
vt 0.333333 0.993977
vt 0.333333 0.996321
vt 0.000000 0.000000
vt 0.000000 0.000000
vt 0.000000 0.000000
vt 0.000000 0.000000
vt 0.500000 0.500000
vt 0.500000 1.000000
vt 1.000000 1.000000
vt 1.000000 0.500000
vt 0.500000 0.500000
vt 1.000000 0.500000
vt 1.000000 1.000000
vt 0.500000 1.000000
vt 0.000000 0.500000
vt 0.000000 0.000000
vt 0.000000 0.000000
vt 0.000000 0.500000
vt 0.000000 1.000000
vt 0.000000 1.000000
vt 0.500000 0.000000
vt 1.000000 0.000000
vt 1.000000 0.000000
vt 0.500000 0.000000
vt 1.000000 1.000000
vt 0.666667 1.000000
vt 0.333333 1.000000
vt -0.000000 1.000000
vt 0.333333 0.500000
vt -0.000000 0.500000
vt 0.666667 0.500000
vt 1.000000 0.500000
vn 0.0000 0.0000 1.0000
vn -0.0004 -1.0000 -0.0006
vn 0.0007 -1.0000 0.0000
vn 1.0000 0.0020 0.0000
vn 0.4295 0.0041 0.9031
vn -0.0007 1.0000 0.0000
vn -0.5000 0.0021 -0.8660
vn 0.0004 1.0000 0.0006
vn -0.5000 0.0021 0.8660
vn 0.0004 1.0000 -0.0006
vn -0.0003 -1.0000 0.0006
vn 0.0000 -0.0000 -1.0000
vn 0.1466 -0.9891 -0.0110
vn 0.0796 -0.9692 0.2330
vn -0.0796 0.9692 -0.2330
vn 0.9666 0.2561 -0.0000
vn -0.9666 -0.2562 -0.0000
vn 0.1862 0.0493 -0.9813
vn 0.1862 0.0493 0.9813
vn 0.1862 0.0494 -0.9813
vn -0.3778 0.9071 -0.1854
vn 0.3778 -0.9071 0.1854
vn 0.3778 -0.9071 -0.1854
vn -0.3778 0.9071 0.1854
vn -0.0796 0.9692 0.2330
vn 0.0796 -0.9692 -0.2330
vn 0.4954 0.0041 -0.8687
vn 1.0000 0.0021 0.0000
usemtl Metal
s off
f 12/1/1 10/2/1 18/3/1 15/4/1
f 10/5/1 11/6/1 13/7/1 18/8/1
f 15/4/1 18/3/1 24/9/1 21/10/1
f 18/8/1 13/7/1 19/11/1 24/12/1
f 16/13/1 14/14/1 20/15/1 22/16/1
f 8/17/1 7/18/1 17/19/1 14/14/1
f 7/20/1 9/21/1 16/13/1 17/22/1
f 11/6/1 12/1/1 15/4/1 13/7/1
f 23/23/2 22/16/2 30/24/2 31/25/2
f 20/15/3 23/26/3 27/27/3 26/28/3
f 14/14/1 17/19/1 23/26/1 20/15/1
f 17/22/1 16/13/1 22/16/1 23/23/1
f 13/7/1 15/4/1 21/10/1 19/11/1
f 27/27/4 28/29/4 25/30/4 26/28/4
f 33/31/5 34/32/5 26/28/5 25/30/5
f 24/12/6 19/11/6 25/30/6 28/29/6
f 30/24/7 29/33/7 32/34/7 31/25/7
f 21/10/8 24/9/8 32/34/8 29/33/8
f 34/32/9 33/31/9 35/35/9 36/36/9
f 19/11/10 21/10/10 35/35/10 33/31/10
f 22/16/11 20/15/11 34/32/11 36/36/11
f 30/24/1 29/33/1 37/37/1 38/38/1
f 35/35/12 36/36/12 40/39/12 39/40/12
f 29/41/13 35/42/13 39/43/13 37/44/13
f 58/45/14 50/46/14 44/47/14 54/48/14
f 57/49/15 56/50/15 48/51/15 52/52/15
f 54/48/16 44/47/16 48/51/16 56/50/16
f 53/53/17 41/54/17 46/55/17 55/56/17
f 50/46/18 43/57/18 45/58/18 52/52/18
f 49/59/19 42/60/19 47/61/19 51/62/19
f 41/54/19 49/59/19 51/62/19 46/55/19
f 44/47/20 50/46/20 52/52/20 48/51/20
f 55/56/21 57/49/21 52/52/21 45/58/21
f 53/53/22 43/57/22 50/46/22 58/45/22
f 41/54/23 53/53/23 58/45/23 49/59/23
f 46/55/24 51/62/24 57/49/24 55/56/24
f 43/57/17 53/53/17 55/56/17 45/58/17
f 42/60/16 54/48/16 56/50/16 47/61/16
f 51/62/25 47/61/25 56/50/25 57/49/25
f 49/59/26 58/45/26 54/48/26 42/60/26
f 28/29/27 27/27/27 31/25/27 32/34/27
usemtl Material.001
f 10/5/4 2/63/4 4/64/4 11/6/4
f 11/6/9 4/64/9 6/65/9 12/1/9
f 12/1/7 6/65/7 2/66/7 10/2/7
f 5/67/7 9/21/7 7/20/7 1/68/7
f 3/69/9 8/17/9 9/21/9 5/67/9
f 1/70/28 7/18/28 8/17/28 3/69/28
