# Blender v2.82 (sub 7) OBJ File: 'temporary_objects.blend'
# www.blender.org
mtllib log.mtl
o Cylinder.012_Cylinder.005
v 0.303449 0.954112 4.278162
v 0.303449 0.954112 6.480331
v 0.196712 0.769238 4.278162
v 0.196712 0.769238 6.480331
v -0.016762 0.769238 4.278162
v -0.016762 0.769238 6.480331
v -0.123499 0.954112 4.278162
v -0.123499 0.954112 6.480331
v -0.016762 1.138986 4.278162
v -0.016762 1.138986 6.480331
v 0.196712 1.138986 4.278162
v 0.196712 1.138986 6.480331
v 0.181630 0.795362 6.480331
v 0.273284 0.954112 6.480331
v -0.001679 0.795362 6.480331
v -0.093333 0.954112 6.480331
v -0.001679 1.112862 6.480331
v 0.181630 1.112862 6.480331
v 0.272300 0.954112 4.278162
v 0.181138 0.796214 4.278162
v -0.001187 0.796214 4.278162
v -0.092349 0.954112 4.278162
v -0.001187 1.112010 4.278162
v 0.181138 1.112010 4.278162
vt 1.000000 0.500000
vt 1.000000 1.000000
vt 0.833333 1.000000
vt 0.833333 0.500000
vt 0.666667 1.000000
vt 0.666667 0.500000
vt 0.500000 1.000000
vt 0.500000 0.500000
vt 0.333333 1.000000
vt 0.333333 0.500000
vt 1.000000 1.000000
vt 0.833333 1.000000
vt 0.166667 1.000000
vt 0.166667 0.500000
vt -0.000000 1.000000
vt -0.000000 0.500000
vt -0.000000 0.500000
vt 0.166667 0.500000
vt 0.666667 1.000000
vt 0.500000 1.000000
vt 0.166667 1.000000
vt -0.000000 1.000000
vt 0.333333 1.000000
vt 0.333333 0.500000
vt 0.500000 0.500000
vt 0.666667 0.500000
vt 0.833333 0.500000
vt 1.000000 0.500000
vt 0.457846 0.370000
vt 0.250000 0.490000
vt 0.042154 0.370000
vt 0.042154 0.130000
vt 0.250000 0.010000
vt 0.457846 0.130000
vt 0.750000 0.490000
vt 0.957846 0.370000
vt 0.957846 0.130000
vt 0.750000 0.010000
vt 0.542154 0.130000
vt 0.542154 0.370000
vn 0.8660 -0.5000 -0.0000
vn 0.0000 -1.0000 0.0000
vn -0.8660 -0.5000 0.0000
vn -0.8660 0.5000 0.0000
vn -0.0000 0.0000 1.0000
vn 0.0000 1.0000 -0.0000
vn 0.8660 0.5000 -0.0000
vn 0.0000 0.0000 -1.0000
usemtl wood.001
s off
f 1/1/1 2/2/1 4/3/1 3/4/1
f 3/4/2 4/3/2 6/5/2 5/6/2
f 5/6/3 6/5/3 8/7/3 7/8/3
f 7/8/4 8/7/4 10/9/4 9/10/4
f 4/3/5 2/2/5 14/11/5 13/12/5
f 9/10/6 10/9/6 12/13/6 11/14/6
f 11/14/7 12/13/7 2/15/7 1/16/7
f 11/14/8 1/16/8 19/17/8 24/18/8
f 8/7/5 6/5/5 15/19/5 16/20/5
f 2/15/5 12/13/5 18/21/5 14/22/5
f 10/9/5 8/7/5 16/20/5 17/23/5
f 6/5/5 4/3/5 13/12/5 15/19/5
f 12/13/5 10/9/5 17/23/5 18/21/5
f 7/8/8 9/10/8 23/24/8 22/25/8
f 3/4/8 5/6/8 21/26/8 20/27/8
f 9/10/8 11/14/8 24/18/8 23/24/8
f 1/1/8 3/4/8 20/27/8 19/28/8
f 5/6/8 7/8/8 22/25/8 21/26/8
usemtl Material.002
f 13/29/5 14/30/5 18/31/5 17/32/5 16/33/5 15/34/5
f 19/35/8 20/36/8 21/37/8 22/38/8 23/39/8 24/40/8
