# Blender v2.82 (sub 7) OBJ File: 'temporary_objects.blend'
# www.blender.org
mtllib villager.mtl
o Cylinder
v -0.000000 0.819915 -3.328634
v -0.000000 1.601337 -3.197480
v 0.170869 0.819915 -3.229983
v 0.053498 1.601337 -3.165073
v -0.170869 0.819915 -3.229983
v -0.053498 1.601337 -3.165073
v -0.000000 0.819915 -3.287710
v 0.073576 0.819915 -3.245231
v 0.073576 0.819915 -3.160273
v -0.000000 0.819915 -3.117793
v -0.073576 0.819915 -3.160273
v -0.073576 0.819915 -3.245231
v -0.000000 0.449454 -3.258271
v 0.055659 0.449454 -3.226136
v 0.055659 0.449454 -3.161867
v -0.000000 0.449454 -3.129732
v -0.055659 0.449454 -3.161867
v -0.055659 0.449454 -3.226136
v -0.000000 1.229906 -3.248301
v 0.101275 1.229906 -3.189829
v -0.101275 1.229906 -3.189829
v -0.001782 1.571178 -3.490747
v 0.001563 1.590856 -3.206670
v 0.027782 1.553100 -3.490485
v 0.044770 1.564799 -3.190316
v 0.027782 1.505337 -3.489959
v 0.044770 1.495550 -3.195330
v -0.001782 1.487392 -3.489697
v 0.001562 1.469376 -3.228971
v -0.030882 1.505337 -3.489959
v -0.042462 1.495550 -3.195330
v -0.030882 1.553100 -3.490485
v -0.042462 1.564799 -3.190316
v -0.041682 -0.009717 -3.218067
v -0.000000 -0.009717 -3.242132
v -0.041682 -0.009717 -3.169936
v -0.000000 -0.009717 -3.145871
v 0.041682 0.031323 -3.169936
v 0.041682 0.031323 -3.218067
v -0.041682 -0.036813 -3.218067
v -0.000000 -0.036813 -3.242132
v -0.041682 -0.036813 -3.169936
v -0.000000 -0.036813 -3.145871
v 0.041682 -0.036813 -3.169936
v 0.041682 -0.036813 -3.218067
v 0.172534 -0.009717 -3.169936
v 0.130852 -0.009717 -3.145871
v 0.172534 -0.009717 -3.218067
v 0.130852 -0.009717 -3.242132
v 0.172534 -0.036813 -3.169936
v 0.130852 -0.036813 -3.145871
v 0.172534 -0.036813 -3.218067
v 0.130852 -0.036813 -3.242132
v -0.000000 1.555425 -3.228436
v 0.091092 1.555425 -3.173613
v -0.091092 1.555425 -3.173613
v -0.007286 1.545822 -3.797333
v 0.029224 1.522800 -3.802381
v 0.029224 1.495977 -3.801923
v -0.007286 1.482415 -3.796178
v -0.039150 1.492573 -3.796467
v -0.039150 1.526312 -3.797044
v 0.025353 1.506945 -3.917444
v 0.025353 1.487045 -3.916867
v -0.039150 1.487045 -3.916867
v -0.039150 1.506945 -3.917444
v -0.006898 1.492573 -3.796467
v -0.006898 1.506945 -3.939701
v -0.006898 1.487045 -3.939124
v 0.025353 1.490292 -3.818530
v 0.025353 1.524032 -3.819107
v -0.039150 1.524032 -3.819107
v -0.039150 1.490292 -3.818530
v -0.006898 1.490292 -3.822609
v -0.006898 1.534736 -3.823186
v 0.059145 1.516140 -3.844077
v 0.059354 1.501794 -3.843948
v 0.052944 1.516715 -3.855680
v 0.053207 1.498670 -3.855519
v -0.015038 1.602379 -3.147580
v -0.015249 1.653523 -3.141922
v 0.030802 1.602379 -3.126254
v 0.021548 1.653523 -3.126546
v -0.053498 1.602379 -3.126254
v -0.052047 1.653523 -3.126546
v -0.077238 1.771440 -3.100398
v 0.071480 1.771440 -3.100398
v -0.046066 1.650435 -3.151855
v -0.059685 1.799153 -3.165352
v 0.071480 1.771440 -3.162837
v -0.077238 1.771440 -3.162837
v 0.065102 1.650435 -3.151855
v 0.038756 1.799153 -3.165352
v -0.046066 1.650435 -3.100398
v -0.059685 1.799153 -3.100398
v 0.065102 1.650435 -3.100398
v 0.038756 1.799153 -3.100398
v -0.077238 1.663022 -3.152997
v 0.071480 1.663022 -3.152997
v 0.071480 1.663022 -3.100398
v -0.077238 1.663022 -3.100398
v -0.000000 0.819915 -2.882197
v -0.000000 1.601337 -3.013350
v 0.170869 0.819915 -2.980848
v 0.053498 1.601337 -3.045757
v -0.170869 0.819915 -2.980848
v -0.053498 1.601337 -3.045757
v -0.000000 0.819915 -2.923120
v 0.073576 0.819915 -2.965599
v 0.073576 0.819915 -3.050558
v -0.000000 0.819915 -3.093037
v -0.073576 0.819915 -3.050558
v -0.073576 0.819915 -2.965599
v -0.000000 0.449454 -2.952559
v 0.055659 0.449454 -2.984694
v 0.055659 0.449454 -3.048963
v -0.000000 0.449454 -3.081098
v -0.055659 0.449454 -3.048963
v -0.055659 0.449454 -2.984694
v -0.000000 1.229906 -2.962530
v 0.101275 1.229906 -3.021001
v -0.101275 1.229906 -3.021001
v -0.170869 0.819915 -3.105415
v -0.053498 1.601337 -3.105415
v -0.101275 1.229906 -3.105415
v -0.001782 1.571178 -2.720083
v 0.001563 1.590856 -3.004160
v 0.027782 1.553100 -2.720345
v 0.044770 1.564799 -3.020514
v 0.027782 1.505337 -2.720871
v 0.044770 1.495550 -3.015500
v -0.001782 1.487392 -2.721133
v 0.001562 1.469376 -2.981859
v -0.030882 1.505337 -2.720871
v -0.042462 1.495550 -3.015500
v -0.030882 1.553100 -2.720345
v -0.042462 1.564799 -3.020514
v 0.170869 0.819915 -3.105415
v 0.053498 1.601337 -3.105415
v 0.101275 1.229906 -3.105415
v -0.041682 -0.009717 -2.992764
v -0.000000 -0.009717 -2.968699
v -0.041682 -0.009717 -3.040894
v -0.000000 -0.009717 -3.064959
v 0.041682 0.031323 -3.040894
v 0.041682 0.031323 -2.992764
v -0.041682 -0.036813 -2.992764
v -0.000000 -0.036813 -2.968699
v -0.041682 -0.036813 -3.040894
v -0.000000 -0.036813 -3.064959
v 0.041682 -0.036813 -3.040894
v 0.041682 -0.036813 -2.992764
v 0.172534 -0.009717 -3.040894
v 0.130852 -0.009717 -3.064959
v 0.172534 -0.009717 -2.992764
v 0.130852 -0.009717 -2.968699
v 0.172534 -0.036813 -3.040894
v 0.130852 -0.036813 -3.064959
v 0.172534 -0.036813 -2.992764
v 0.130852 -0.036813 -2.968699
v -0.000000 1.555425 -2.982394
v 0.091092 1.555425 -3.037218
v -0.091092 1.555425 -3.037218
v -0.091092 1.555425 -3.105415
v 0.091092 1.555425 -3.105415
v -0.007286 1.545822 -2.413497
v 0.029224 1.522800 -2.408449
v 0.029224 1.495977 -2.408908
v -0.007286 1.482415 -2.414652
v -0.039150 1.492573 -2.414363
v -0.039150 1.526312 -2.413786
v 0.025353 1.506945 -2.293386
v 0.025353 1.487045 -2.293963
v -0.039150 1.487045 -2.293963
v -0.039150 1.506945 -2.293386
v -0.006898 1.492573 -2.414363
v -0.006898 1.506945 -2.271129
v -0.006898 1.487045 -2.271706
v 0.025353 1.490292 -2.392300
v 0.025353 1.524032 -2.391723
v -0.039150 1.524032 -2.391723
v -0.039150 1.490292 -2.392300
v -0.006898 1.490292 -2.388222
v -0.006898 1.534736 -2.387644
v 0.059145 1.516140 -2.366754
v 0.059354 1.501794 -2.366882
v 0.052944 1.516715 -2.355150
v 0.053207 1.498670 -2.355311
v -0.015038 1.602379 -3.063251
v -0.015249 1.653523 -3.068908
v 0.030802 1.602379 -3.084576
v 0.021548 1.653523 -3.084285
v -0.053498 1.602379 -3.084576
v -0.052047 1.653523 -3.084285
v 0.030802 1.602379 -3.105415
v 0.021548 1.653523 -3.105415
v -0.052047 1.653523 -3.105415
v -0.077238 1.771440 -3.110432
v 0.071480 1.771440 -3.110432
v -0.046066 1.650435 -3.058975
v -0.059685 1.799153 -3.045478
v 0.071480 1.771440 -3.047993
v -0.077238 1.771440 -3.047993
v 0.065102 1.650435 -3.058975
v 0.038756 1.799153 -3.045478
v -0.046066 1.650435 -3.110432
v -0.059685 1.799153 -3.110432
v 0.065102 1.650435 -3.110432
v 0.038756 1.799153 -3.110432
v -0.077238 1.663022 -3.057833
v 0.071480 1.663022 -3.057833
v 0.071480 1.663022 -3.110432
v -0.077238 1.663022 -3.110432
vt 1.000000 0.970623
vt 1.000000 1.000000
vt 0.833333 1.000000
vt 0.833333 0.970623
vt 0.457846 0.370000
vt 0.250000 0.490000
vt 0.042154 0.370000
vt 0.042154 0.250000
vt 0.457846 0.250000
vt 0.250000 0.970623
vt 0.250000 1.000000
vt 0.166667 1.000000
vt 0.166667 0.970623
vt -0.000000 1.000000
vt -0.000000 0.970623
vt -0.000000 0.500000
vt 0.833333 0.500000
vt 0.750000 0.500000
vt 0.250000 0.500000
vt 0.166667 0.500000
vt 0.166667 0.762336
vt -0.000000 0.762336
vt 0.250000 0.762336
vt 1.000000 0.500000
vt 1.000000 0.762336
vt 0.833333 0.762336
vt 0.750000 0.762336
vt 0.750000 1.000000
vt 0.750000 0.970623
vt 1.000000 0.970623
vt 0.833333 0.970623
vt 0.833333 1.000000
vt 1.000000 1.000000
vt 0.457846 0.370000
vt 0.042154 0.370000
vt 0.250000 0.490000
vt 0.166667 0.970623
vt 0.166667 1.000000
vt -0.000000 0.970623
vt -0.000000 1.000000
vt -0.000000 0.500000
vt 0.166667 0.500000
vt 0.833333 0.500000
vt -0.000000 0.762336
vt 0.166667 0.762336
vt 1.000000 0.500000
vt 0.833333 0.762336
vt 1.000000 0.762336
vt 0.957846 0.130000
vt 0.750000 0.010000
vt 0.750000 0.010000
vt 0.957846 0.130000
vt 0.542154 0.370000
vt 0.750000 0.490000
vt 0.750000 0.490000
vt 0.542154 0.370000
vt 0.542154 0.130000
vt 0.542154 0.130000
vt 0.750000 0.490000
vt 0.957846 0.370000
vt 0.957846 0.370000
vt 0.542154 0.370000
vt 1.000000 0.500000
vt 1.000000 1.000000
vt 0.833333 1.000000
vt 0.833333 0.500000
vt 0.666667 1.000000
vt 0.666667 0.500000
vt 0.500000 1.000000
vt 0.500000 0.500000
vt 0.333333 1.000000
vt 0.333333 0.500000
vt 0.166667 1.000000
vt 0.166667 0.500000
vt -0.000000 1.000000
vt -0.000000 0.500000
vt 0.500000 0.500000
vt 0.666667 0.500000
vt 0.957846 0.370000
vt 0.957846 0.370000
vt 0.750000 0.490000
vt 0.750000 0.010000
vt 0.957846 0.130000
vt 0.542154 0.130000
vt 0.750000 0.490000
vt 0.957846 0.370000
vt 0.957846 0.130000
vt 0.750000 0.010000
vt 0.542154 0.130000
vt 0.542154 0.370000
vt 0.957846 0.370000
vt 0.957846 0.130000
vt 0.750000 0.010000
vt 0.750000 0.010000
vt 0.750000 0.490000
vt 0.957846 0.130000
vt -0.000000 0.500000
vt 0.166667 0.500000
vt 0.333333 0.500000
vt 0.833333 0.500000
vt 1.000000 0.500000
vt 0.833333 0.500000
vt 0.666667 0.500000
vt 0.666667 0.500000
vt 0.833333 0.500000
vt 0.500000 0.500000
vt 0.500000 0.500000
vt 0.500000 0.500000
vt 0.500000 0.500000
vt 0.333333 0.500000
vt 0.166667 0.500000
vt 0.166667 0.500000
vt 0.333333 0.500000
vt 0.500000 0.500000
vt 0.500000 0.500000
vt 0.833333 0.500000
vt 0.833333 0.500000
vt 0.666667 0.500000
vt 0.666667 0.500000
vt 1.000000 0.500000
vt 1.000000 1.000000
vt 0.833333 1.000000
vt 0.833333 0.500000
vt 0.457846 0.370000
vt 0.250000 0.490000
vt 0.042154 0.370000
vt 0.042154 0.250000
vt 0.457846 0.250000
vt 0.250000 0.500000
vt 0.250000 1.000000
vt 0.166667 1.000000
vt 0.166667 0.500000
vt -0.000000 1.000000
vt -0.000000 0.500000
vt 0.750000 1.000000
vt 0.750000 0.500000
vt 0.578415 0.125000
vt 0.625000 0.125000
vt 0.625000 0.250000
vt 0.578415 0.250000
vt 0.625000 0.500000
vt 0.578415 0.500000
vt 0.375000 0.250000
vt 0.396159 0.250000
vt 0.396159 0.500000
vt 0.375000 0.500000
vt 0.396159 0.625000
vt 0.375000 0.625000
vt 0.396159 0.125000
vt 0.875000 0.500000
vt 0.875000 0.625000
vt 0.625000 0.625000
vt 0.125000 0.500000
vt 0.125000 0.625000
vt 0.578415 0.625000
vt 0.375000 0.125000
vt 0.957846 0.130000
vt 0.957846 0.130000
vt 0.750000 0.010000
vt 0.750000 0.010000
vt 0.542154 0.370000
vt 0.542154 0.370000
vt 0.750000 0.490000
vt 0.750000 0.490000
vt 0.542154 0.130000
vt 0.542154 0.130000
vt 0.750000 0.490000
vt 0.957846 0.370000
vt 0.957846 0.370000
vt 0.542154 0.370000
vt 1.000000 0.500000
vt 0.833333 0.500000
vt 0.833333 1.000000
vt 1.000000 1.000000
vt 0.666667 0.500000
vt 0.666667 1.000000
vt 0.500000 0.500000
vt 0.500000 1.000000
vt 0.333333 0.500000
vt 0.333333 1.000000
vt 0.166667 0.500000
vt 0.166667 1.000000
vt -0.000000 0.500000
vt -0.000000 1.000000
vt 0.666667 0.500000
vt 0.500000 0.500000
vt 0.750000 0.490000
vt 0.957846 0.370000
vt 0.957846 0.370000
vt 0.957846 0.130000
vt 0.750000 0.010000
vt 0.542154 0.130000
vt 0.750000 0.490000
vt 0.542154 0.370000
vt 0.542154 0.130000
vt 0.750000 0.010000
vt 0.957846 0.130000
vt 0.957846 0.370000
vt 0.957846 0.130000
vt 0.957846 0.370000
vt 0.750000 0.010000
vt 0.750000 0.010000
vt 0.750000 0.490000
vt 0.957846 0.130000
vt 0.166667 0.500000
vt -0.000000 0.500000
vt 0.333333 0.500000
vt 0.833333 0.500000
vt 1.000000 0.500000
vt 0.833333 0.500000
vt 0.833333 0.500000
vt 0.666667 0.500000
vt 0.666667 0.500000
vt 0.500000 0.500000
vt 0.500000 0.500000
vt 0.500000 0.500000
vt 0.500000 0.500000
vt 0.333333 0.500000
vt 0.333333 0.500000
vt 0.166667 0.500000
vt 0.166667 0.500000
vt 0.500000 0.500000
vt 0.500000 0.500000
vt 0.833333 0.500000
vt 0.833333 0.500000
vt 0.666667 0.500000
vt 0.666667 0.500000
vt 1.000000 0.500000
vt 0.833333 0.500000
vt 0.833333 1.000000
vt 1.000000 1.000000
vt 0.457846 0.370000
vt 0.042154 0.370000
vt 0.250000 0.490000
vt 0.166667 0.500000
vt 0.166667 1.000000
vt -0.000000 0.500000
vt -0.000000 1.000000
vt 0.578415 0.125000
vt 0.578415 0.250000
vt 0.625000 0.250000
vt 0.625000 0.125000
vt 0.578415 0.500000
vt 0.625000 0.500000
vt 0.375000 0.250000
vt 0.375000 0.500000
vt 0.396159 0.500000
vt 0.396159 0.250000
vt 0.375000 0.625000
vt 0.396159 0.625000
vt 0.396159 0.125000
vt 0.625000 0.625000
vt 0.875000 0.625000
vt 0.875000 0.500000
vt 0.125000 0.500000
vt 0.125000 0.625000
vt 0.578415 0.625000
vt 0.375000 0.125000
vn 0.4469 0.5016 -0.7408
vn 0.0000 1.0000 0.0000
vn -0.7737 0.6335 0.0000
vn -0.4469 0.5016 -0.7408
vn 0.0000 -1.0000 -0.0000
vn -0.4930 0.1673 -0.8538
vn -0.9859 0.1673 0.0000
vn 0.4930 0.1673 -0.8538
vn 0.9859 0.1673 0.0000
vn 0.7737 0.6335 0.0000
vn 0.9995 0.0313 0.0000
vn -0.5067 0.0556 -0.8603
vn -0.9995 0.0313 0.0000
vn 0.5067 0.0556 -0.8603
vn 0.4469 0.5016 0.7408
vn -0.4469 0.5016 0.7408
vn -0.4930 0.1673 0.8538
vn 0.4930 0.1673 0.8538
vn -0.5067 0.0556 0.8603
vn 0.5067 0.0556 0.8603
vn 0.4998 -0.0279 0.8657
vn -0.4998 -0.0304 -0.8656
vn -0.4998 -0.0279 0.8657
vn 0.4988 -0.0687 -0.8640
vn -0.9988 -0.0483 0.0000
vn 0.9988 -0.0483 0.0000
vn -0.4988 -0.0687 -0.8640
vn 0.5281 0.8468 -0.0639
vn 0.9984 0.0022 -0.0570
vn 0.5380 -0.8407 -0.0618
vn -0.5326 -0.8448 -0.0502
vn -0.9992 0.0015 -0.0389
vn -0.5248 0.8496 -0.0530
vn 0.4317 -0.9018 0.0181
vn 0.1037 0.6610 -0.7432
vn 0.5098 -0.0318 -0.8597
vn 0.5098 -0.0318 0.8597
vn -0.9995 -0.0304 0.0000
vn 0.9994 -0.0334 0.0000
vn -0.4998 -0.0304 0.8656
vn -1.0000 0.0000 0.0000
vn 0.0000 0.0000 1.0000
vn -0.5000 0.0000 0.8660
vn -0.5000 0.0000 -0.8660
vn 0.5000 0.0000 -0.8660
vn 0.5000 0.0000 0.8660
vn 1.0000 0.0000 0.0000
vn 0.1037 0.6610 0.7432
vn 0.0000 0.0000 -1.0000
vn 0.2993 0.9542 0.0000
vn -0.5243 0.8494 -0.0605
vn -0.4186 -0.9074 0.0357
vn 1.0000 0.0001 0.0046
vn -0.9996 0.0004 0.0269
vn 0.5223 0.8490 -0.0798
vn -0.0782 -0.0253 -0.9966
vn 0.5678 -0.0239 -0.8228
vn 0.2388 0.9505 -0.1985
vn 0.0123 -0.9995 0.0302
vn -0.0123 -0.9995 0.0302
vn -0.2388 0.9505 -0.1985
vn -0.5678 -0.0239 -0.8228
vn -0.4268 0.8702 -0.2462
vn 0.0525 -0.9826 0.1783
vn 0.0060 -0.9955 0.0942
vn 0.4251 0.8736 -0.2369
vn 0.2170 0.9761 -0.0149
vn 0.8821 0.0086 -0.4710
vn 0.4079 -0.9027 0.1371
vn -0.7984 -0.0126 -0.6020
vn 0.8126 0.0124 0.5827
vn 0.4044 0.0852 -0.9106
vn -0.9996 0.0281 0.0007
vn -0.4377 0.0524 -0.8976
vn 0.9840 0.1781 0.0000
vn -0.8448 0.5351 0.0000
vn 0.0000 -0.0904 -0.9959
vn 0.8920 -0.4520 0.0000
vn 0.6463 0.7631 0.0000
vn -0.3744 -0.9273 0.0000
vn 0.4998 -0.0279 -0.8657
vn -0.4998 -0.0279 -0.8657
vn 0.4988 -0.0687 0.8640
vn -0.4988 -0.0687 0.8640
vn 0.5281 0.8468 0.0639
vn 0.9984 0.0022 0.0570
vn 0.5380 -0.8407 0.0618
vn -0.5326 -0.8448 0.0502
vn -0.9992 0.0015 0.0389
vn -0.5248 0.8496 0.0530
vn 0.4317 -0.9018 -0.0181
vn -0.5243 0.8494 0.0605
vn -0.4186 -0.9074 -0.0357
vn 1.0000 0.0001 -0.0046
vn -0.9996 0.0004 -0.0269
vn 0.5223 0.8490 0.0798
vn -0.0782 -0.0253 0.9966
vn 0.5678 -0.0239 0.8228
vn 0.2388 0.9506 0.1985
vn 0.0123 -0.9995 -0.0302
vn -0.0123 -0.9995 -0.0302
vn -0.2388 0.9506 0.1985
vn -0.5678 -0.0239 0.8228
vn -0.4268 0.8702 0.2462
vn 0.0525 -0.9826 -0.1783
vn 0.0060 -0.9955 -0.0942
vn 0.4251 0.8736 0.2369
vn 0.2170 0.9761 0.0149
vn 0.8821 0.0086 0.4710
vn 0.4079 -0.9027 -0.1371
vn -0.7984 -0.0126 0.6020
vn 0.8126 0.0124 -0.5827
vn 0.4044 0.0852 0.9106
vn -0.9996 0.0281 -0.0007
vn -0.4377 0.0524 0.8976
vn 0.0000 -0.0904 0.9959
usemtl Dress.001
s off
f 54/1/1 2/2/1 4/3/1 55/4/1
f 4/5/2 2/6/2 6/7/2 124/8/2 139/9/2
f 164/10/3 124/11/3 6/12/3 56/13/3
f 56/13/4 6/12/4 2/14/4 54/15/4
f 1/16/5 3/17/5 138/18/5 123/19/5 5/20/5
f 5/20/6 21/21/6 19/22/6 1/16/6
f 123/19/7 125/23/7 21/21/7 5/20/7
f 1/24/8 19/25/8 20/26/8 3/17/8
f 3/17/9 20/26/9 140/27/9 138/18/9
f 55/4/10 4/3/10 139/28/10 165/29/10
f 20/26/11 55/4/11 165/29/11 140/27/11
f 21/21/12 56/13/12 54/15/12 19/22/12
f 125/23/13 164/10/13 56/13/13 21/21/13
f 19/25/14 54/1/14 55/4/14 20/26/14
f 161/30/15 162/31/15 105/32/15 103/33/15
f 105/34/2 139/9/2 124/8/2 107/35/2 103/36/2
f 164/10/3 163/37/3 107/38/3 124/11/3
f 163/37/16 161/39/16 103/40/16 107/38/16
f 102/41/5 106/42/5 123/19/5 138/18/5 104/43/5
f 106/42/17 102/41/17 120/44/17 122/45/17
f 123/19/7 106/42/7 122/45/7 125/23/7
f 102/46/18 104/43/18 121/47/18 120/48/18
f 104/43/9 138/18/9 140/27/9 121/47/9
f 162/31/10 165/29/10 139/28/10 105/32/10
f 121/47/11 140/27/11 165/29/11 162/31/11
f 122/45/19 120/44/19 161/39/19 163/37/19
f 125/23/13 122/45/13 163/37/13 164/10/13
f 120/48/20 121/47/20 162/31/20 161/30/20
usemtl Skin
f 9/49/21 10/50/21 16/51/21 15/52/21
f 18/53/22 13/54/22 35/55/22 34/56/22
f 10/50/23 11/57/23 17/58/23 16/51/23
f 7/59/24 8/60/24 14/61/24 13/54/24
f 11/57/25 12/62/25 18/53/25 17/58/25
f 8/60/26 9/49/26 15/52/26 14/61/26
f 12/62/27 7/59/27 13/54/27 18/53/27
f 22/63/28 23/64/28 25/65/28 24/66/28
f 24/66/29 25/65/29 27/67/29 26/68/29
f 26/68/30 27/67/30 29/69/30 28/70/30
f 28/70/31 29/69/31 31/71/31 30/72/31
f 30/72/32 31/71/32 33/73/32 32/74/32
f 32/74/33 33/73/33 23/75/33 22/76/33
f 26/68/34 28/70/34 60/77/34 59/78/34
f 35/55/35 39/79/35 48/80/35 49/81/35
f 13/54/36 14/61/36 39/79/36 35/55/36
f 15/52/37 16/51/37 37/82/37 38/83/37
f 17/58/38 18/53/38 34/56/38 36/84/38
f 14/61/39 15/52/39 38/83/39 39/79/39
f 16/51/40 17/58/40 36/84/40 37/82/40
f 41/85/5 45/86/5 44/87/5 43/88/5 42/89/5 40/90/5
f 44/87/5 45/86/5 52/91/5 50/92/5
f 36/84/41 34/56/41 40/90/41 42/89/41
f 37/82/42 43/88/42 51/93/42 47/94/42
f 37/82/43 36/84/43 42/89/43 43/88/43
f 34/56/44 35/55/44 41/85/44 40/90/44
f 49/81/45 48/80/45 52/91/45 53/95/45
f 46/96/46 47/94/46 51/93/46 50/92/46
f 48/80/47 46/96/47 50/92/47 52/91/47
f 38/83/48 37/82/48 47/94/48 46/96/48
f 41/85/49 35/55/49 49/81/49 53/95/49
f 45/86/5 41/85/5 53/95/5 52/91/5
f 39/79/50 38/83/50 46/96/50 48/80/50
f 43/88/5 44/87/5 50/92/5 51/93/5
f 32/74/51 22/76/51 57/97/51 62/98/51
f 28/70/52 30/72/52 61/99/52 60/77/52
f 24/66/53 26/68/53 59/78/53 58/100/53
f 30/72/54 32/74/54 62/98/54 61/99/54
f 22/63/55 24/66/55 58/100/55 57/101/55
f 71/102/47 70/103/47 64/104/47 63/105/47
f 61/99/56 67/106/56 59/78/56 60/77/56
f 68/107/57 63/105/57 64/104/57 69/108/57
f 75/109/58 71/102/58 63/105/58 68/107/58
f 73/110/41 72/111/41 66/112/41 65/113/41
f 74/114/59 73/110/59 65/113/59 69/108/59
f 70/103/60 74/114/60 69/108/60 64/104/60
f 72/111/61 75/109/61 68/107/61 66/112/61
f 66/112/62 68/107/62 69/108/62 65/113/62
f 62/98/63 57/115/63 75/109/63 72/111/63
f 59/78/64 67/106/64 74/114/64 70/103/64
f 67/106/65 61/99/65 73/110/65 74/114/65
f 61/99/41 62/98/41 72/111/41 73/110/41
f 57/115/66 58/100/66 71/102/66 75/109/66
f 71/102/67 58/100/67 76/116/67 78/117/67
f 76/116/68 77/118/68 79/119/68 78/117/68
f 59/78/69 70/103/69 79/119/69 77/118/69
f 70/103/70 71/102/70 78/117/70 79/119/70
f 58/100/71 59/78/71 77/118/71 76/116/71
f 80/120/72 81/121/72 83/122/72 82/123/72
f 83/124/2 81/125/2 85/126/2 197/127/2 196/128/2
f 124/129/73 197/130/73 85/131/73 84/132/73
f 84/132/74 85/131/74 81/133/74 80/134/74
f 82/123/75 83/122/75 196/135/75 195/136/75
f 86/137/76 95/138/76 89/139/76 91/140/76
f 91/140/77 89/139/77 93/141/77 90/142/77
f 88/143/77 98/144/77 99/145/77 92/146/77
f 92/146/78 99/145/78 100/147/78 96/148/78
f 101/149/41 86/137/41 91/140/41 98/144/41
f 98/144/77 91/140/77 90/142/77 99/145/77
f 93/141/2 89/150/2 95/151/2 97/152/2
f 88/153/5 92/146/5 96/148/5 94/154/5
f 90/142/79 93/141/79 97/152/79 87/155/79
f 99/145/47 90/142/47 87/155/47 100/147/47
f 94/156/80 101/149/80 98/144/80 88/143/80
f 110/157/81 116/158/81 117/159/81 111/160/81
f 119/161/40 141/162/40 142/163/40 114/164/40
f 111/160/82 117/159/82 118/165/82 112/166/82
f 108/167/83 114/164/83 115/168/83 109/169/83
f 112/166/25 118/165/25 119/161/25 113/170/25
f 109/169/26 115/168/26 116/158/26 110/157/26
f 113/170/84 119/161/84 114/164/84 108/167/84
f 126/171/85 128/172/85 129/173/85 127/174/85
f 128/172/86 130/175/86 131/176/86 129/173/86
f 130/175/87 132/177/87 133/178/87 131/176/87
f 132/177/88 134/179/88 135/180/88 133/178/88
f 134/179/89 136/181/89 137/182/89 135/180/89
f 136/181/90 126/183/90 127/184/90 137/182/90
f 130/175/91 168/185/91 169/186/91 132/177/91
f 142/163/48 156/187/48 155/188/48 146/189/48
f 114/164/37 142/163/37 146/189/37 115/168/37
f 116/158/36 145/190/36 144/191/36 117/159/36
f 118/165/38 143/192/38 141/162/38 119/161/38
f 115/168/39 146/189/39 145/190/39 116/158/39
f 117/159/22 144/191/22 143/192/22 118/165/22
f 148/193/5 147/194/5 149/195/5 150/196/5 151/197/5 152/198/5
f 151/197/5 157/199/5 159/200/5 152/198/5
f 143/192/41 149/195/41 147/194/41 141/162/41
f 144/191/49 154/201/49 158/202/49 150/196/49
f 144/191/44 150/196/44 149/195/44 143/192/44
f 141/162/43 147/194/43 148/193/43 142/163/43
f 156/187/46 160/203/46 159/200/46 155/188/46
f 153/204/45 157/199/45 158/202/45 154/201/45
f 155/188/47 159/200/47 157/199/47 153/204/47
f 145/190/35 153/204/35 154/201/35 144/191/35
f 148/193/42 160/203/42 156/187/42 142/163/42
f 152/198/5 159/200/5 160/203/5 148/193/5
f 146/189/50 155/188/50 153/204/50 145/190/50
f 150/196/5 158/202/5 157/199/5 151/197/5
f 136/181/92 171/205/92 166/206/92 126/183/92
f 132/177/93 169/186/93 170/207/93 134/179/93
f 128/172/94 167/208/94 168/185/94 130/175/94
f 134/179/95 170/207/95 171/205/95 136/181/95
f 126/171/96 166/209/96 167/208/96 128/172/96
f 180/210/47 172/211/47 173/212/47 179/213/47
f 170/207/97 169/186/97 168/185/97 176/214/97
f 177/215/98 178/216/98 173/212/98 172/211/98
f 184/217/99 177/215/99 172/211/99 180/210/99
f 182/218/41 174/219/41 175/220/41 181/221/41
f 183/222/100 178/216/100 174/219/100 182/218/100
f 179/213/101 173/212/101 178/216/101 183/222/101
f 181/221/102 175/220/102 177/215/102 184/217/102
f 175/220/103 174/219/103 178/216/103 177/215/103
f 171/205/104 181/221/104 184/217/104 166/223/104
f 168/185/105 179/213/105 183/222/105 176/214/105
f 176/214/106 183/222/106 182/218/106 170/207/106
f 170/207/41 182/218/41 181/221/41 171/205/41
f 166/223/107 184/217/107 180/210/107 167/208/107
f 180/210/108 187/224/108 185/225/108 167/208/108
f 185/225/109 187/224/109 188/226/109 186/227/109
f 168/185/110 186/227/110 188/226/110 179/213/110
f 179/213/111 188/226/111 187/224/111 180/210/111
f 167/208/112 185/225/112 186/227/112 168/185/112
f 189/228/113 191/229/113 192/230/113 190/231/113
f 192/232/2 196/128/2 197/127/2 194/233/2 190/234/2
f 124/129/114 193/235/114 194/236/114 197/130/114
f 193/235/115 189/237/115 190/238/115 194/236/115
f 191/229/75 195/136/75 196/135/75 192/230/75
f 198/239/76 203/240/76 201/241/76 207/242/76
f 203/240/116 202/243/116 205/244/116 201/241/116
f 200/245/116 204/246/116 211/247/116 210/248/116
f 204/246/78 208/249/78 212/250/78 211/247/78
f 213/251/41 210/248/41 203/240/41 198/239/41
f 210/248/116 211/247/116 202/243/116 203/240/116
f 205/244/2 209/252/2 207/253/2 201/254/2
f 200/255/5 206/256/5 208/249/5 204/246/5
f 202/243/79 199/257/79 209/252/79 205/244/79
f 211/247/47 212/250/47 199/257/47 202/243/47
f 206/258/80 200/245/80 210/248/80 213/251/80
